<?xml version="1.0" encoding="UTF-8"?>
<!DOCTYPE svg PUBLIC "-//W3C//DTD SVG 1.1//EN" "http://www.w3.org/Graphics/SVG/1.1/DTD/svg11.dtd">
<!-- Creator: CorelDRAW X8 -->
<svg xmlns="http://www.w3.org/2000/svg" xml:space="preserve" width="7.6087mm" height="7.6087mm" version="1.1" style="shape-rendering:geometricPrecision; text-rendering:geometricPrecision; image-rendering:optimizeQuality; fill-rule:evenodd; clip-rule:evenodd"
viewBox="0 0 30 30"
 xmlns:xlink="http://www.w3.org/1999/xlink">
 <defs>
  <style type="text/css">
   <![CDATA[
    .fil0 {fill:white}
   ]]>
  </style>
 </defs>
 <g id="Warstwa_x0020_1">
  <metadata id="CorelCorpID_0Corel-Layer"/>
  <path class="fil0" d="M27 0l-24 0c-2,0 -3,1 -3,3l0 27 6 -6 21 0c1,0 3,-2 3,-3l0 -18c0,-2 -2,-3 -3,-3l0 0zm-21 10l18 0 0 3 -18 0 0 -3zm12 8l-12 0 0 -3 12 0 0 3zm6 -9l-18 0 0 -3 18 0 0 3z"/>
 </g>
</svg>
