<?xml version="1.0" encoding="UTF-8"?>
<!DOCTYPE svg PUBLIC "-//W3C//DTD SVG 1.1//EN" "http://www.w3.org/Graphics/SVG/1.1/DTD/svg11.dtd">
<!-- Creator: CorelDRAW X8 -->
<svg xmlns="http://www.w3.org/2000/svg" xml:space="preserve" width="8.0673mm" height="8.0673mm" version="1.1" style="shape-rendering:geometricPrecision; text-rendering:geometricPrecision; image-rendering:optimizeQuality; fill-rule:evenodd; clip-rule:evenodd"
viewBox="0 0 29 29"
 >
 <defs>
  <style type="text/css">
   <![CDATA[
    .fil0 {fill:white}
   ]]>
  </style>
 </defs>
 <g id="Warstwa_x0020_1">
  <metadata id="CorelCorpID_0Corel-Layer"/>
  <path class="fil0" d="M14 0c8,0 15,6 15,14 0,8 -7,15 -15,15 -8,0 -14,-7 -14,-15 0,-8 6,-14 14,-14zm-2 18c0,-1 0,-2 1,-3 0,0 1,-1 1,-1 1,-1 1,-1 2,-1 0,-1 0,-1 0,-2 0,0 0,-1 -1,-1 0,-1 0,-1 -1,-1 0,0 -1,0 -1,1 0,0 0,0 -1,1l-3 0 0 0c0,-2 0,-3 1,-3 1,-1 3,-1 4,-1 2,0 3,0 4,1 1,1 1,2 1,3 0,1 0,2 0,3 -1,0 -1,1 -2,1 -1,1 -1,1 -1,1 0,1 0,1 0,2l-4 0zm4 4l-4 0 0 -3 4 0 0 3z"/>
 </g>
</svg>
